<?xml version="1.0" encoding="utf-8"?>
<svg version="1.1" id="Layer_1" xmlns="http://www.w3.org/2000/svg" xmlns:xlink="http://www.w3.org/1999/xlink" x="0px" y="0px" width="12em"
	 viewBox="0 0 1300.7 255" enable-background="new 0 0 1300.7 255" xml:space="preserve">
<g>
	<path fill="#FF3B77" d="M296.55,247.366c-2.901,0.9-5.801,1.35-8.7,1.35c-7.102,0-12.851-1.852-17.25-5.55
		c-4.402-3.701-7.8-8.475-10.2-14.325s-4.026-12.352-4.875-19.5c-0.851-7.151-1.275-14.175-1.275-21.075
		c0-7.099,0.375-14.198,1.125-21.3c0.75-7.099,1.673-14.175,2.775-21.225c1.099-7.05,2.299-14.1,3.6-21.15
		c1.298-7.05,2.55-14.074,3.75-21.075c0.398-2.299,0.849-5.4,1.35-9.3c0.499-3.9,0.75-7.95,0.75-12.15
		c0-1.599-0.075-3.45-0.225-5.55c-0.15-2.1-0.427-4.099-0.825-6c-0.4-1.898-0.951-3.499-1.65-4.8c-0.701-1.298-1.601-1.95-2.7-1.95
		c-0.9,0-1.875,0.225-2.925,0.675c-1.05,0.45-1.926,0.776-2.625,0.975c-5.4,2.201-10.626,4.776-15.675,7.725
		c-5.051,2.951-9.9,6.101-14.55,9.45c-4.65,3.352-9.101,6.802-13.35,10.35c-4.252,3.551-8.325,7.076-12.225,10.575l-3.9,13.35
		c-2.201,7.5-4.8,15.15-7.8,22.95c-3,7.8-6.401,15.3-10.2,22.5c3.199-0.799,6.349-1.575,9.45-2.325
		c3.099-0.75,6.249-1.523,9.45-2.325c0.6-0.199,1.298-0.35,2.1-0.45c0.799-0.099,1.598-0.15,2.4-0.15
		c0.499,0,1.249,0.075,2.25,0.225c0.999,0.15,1.5,0.426,1.5,0.825c0,0.3-1.251,0.802-3.75,1.5c-2.501,0.701-5.4,1.425-8.7,2.175
		c-3.3,0.75-6.551,1.477-9.75,2.175c-3.202,0.701-5.5,1.2-6.9,1.5c-3.202,5.602-6.675,10.601-10.425,15s-8.025,8.55-12.825,12.45
		c-4.5,3.6-8.227,5.775-11.175,6.525c-2.951,0.75-5.227,1.125-6.825,1.125c-4.5,0-7.65-0.652-9.45-1.95
		c-1.8-1.301-2.7-3.352-2.7-6.15c0-2.801,0.825-6,2.475-9.6c1.65-3.6,3.773-7.298,6.375-11.1c-7.402,0.6-14.801,0.9-22.2,0.9
		c-6.9,0-13.776-0.3-20.625-0.9c-6.851-0.6-13.725-1.448-20.625-2.55c-4.2-0.698-8.602-1.599-13.2-2.7
		c-4.601-1.099-9.15-2.475-13.65-4.125c-4.5-1.65-8.801-3.623-12.9-5.925c-4.102-2.299-7.702-5.025-10.8-8.175
		c-3.101-3.15-5.576-6.773-7.425-10.875c-1.852-4.1-2.775-8.75-2.775-13.95c0-3.9,0.499-7.823,1.5-11.775
		c0.999-3.949,2.299-7.8,3.9-11.55c1.599-3.75,3.45-7.373,5.55-10.875c2.1-3.499,4.298-6.698,6.6-9.6
		c7.2-9.398,15.875-17.55,26.025-24.45c10.148-6.9,21.023-12.624,32.625-17.175c11.599-4.549,23.55-7.95,35.85-10.2
		c12.3-2.25,24.3-3.375,36-3.375c4.5,0,9.398,0.3,14.7,0.9c5.299,0.6,10.099,2.001,14.4,4.2c3.999,2.1,7.324,4.551,9.975,7.35
		c2.648,2.801,4.774,5.901,6.375,9.3c1.599,3.401,2.749,7.001,3.45,10.8c0.698,3.802,1.05,7.751,1.05,11.85
		c0,4.601-0.352,9.277-1.05,14.025c-0.701,4.751-1.601,9.375-2.7,13.875c4.599-3.9,9.548-7.999,14.85-12.3
		c5.299-4.298,10.898-8.299,16.8-12c5.899-3.698,12.023-6.75,18.375-9.15c6.349-2.4,12.923-3.6,19.725-3.6
		c2.599,0,5.048,0.3,7.35,0.9c2.299,0.6,4.249,1.65,5.85,3.15c1.5,1.402,2.524,3.427,3.075,6.075
		c0.548,2.651,0.825,5.175,0.825,7.575c0,2.4-0.176,4.826-0.525,7.275c-0.352,2.452-0.75,4.852-1.2,7.2
		c-0.45,2.351-0.952,4.552-1.5,6.6c-0.551,2.051-0.975,3.825-1.275,5.325c-1.702,7.702-3.577,15.276-5.625,22.725
		c-2.051,7.451-3.776,15.075-5.175,22.875c-1.301,6.9-2.25,13.776-2.85,20.625c-0.6,6.851-0.9,13.725-0.9,20.625
		c0,1.699,0.023,3.375,0.075,5.025c0.049,1.65,0.124,3.323,0.225,5.025c0.098,2.299,0.225,4.974,0.375,8.025
		c0.15,3.049,0.45,6.225,0.9,9.525c0.45,3.3,1.073,6.549,1.875,9.75c0.799,3.199,1.898,6.049,3.3,8.55
		c1.399,2.499,3.099,4.523,5.1,6.075c2,1.549,4.449,2.325,7.35,2.325c1.099,0,2.349-0.15,3.75-0.45c6-1.301,12-3.9,18-7.8
		s11.775-8.376,17.324-13.425c5.551-5.051,10.801-10.327,15.75-15.825c4.951-5.501,9.375-10.5,13.275-15
		c0.398-0.202,0.998-0.3,1.801-0.3c0.998,0,1.5,0.349,1.5,1.05c-4.301,5.499-8.801,10.999-13.5,16.5
		c-4.703,5.499-9.676,10.673-14.926,15.525c-5.25,4.849-10.852,9.199-16.801,13.05C309.725,242.139,303.35,245.165,296.55,247.366z
		 M152.55,28.516c-11.001,0-22.15,1.301-33.45,3.9c-11.302,2.602-22.151,6.4-32.55,11.4C76.148,48.817,66.499,54.941,57.6,62.191
		c-8.902,7.251-16.451,15.577-22.65,24.975c-3.502,5.201-6.577,11.076-9.225,17.625c-2.651,6.551-3.975,13.125-3.975,19.725
		c0,7.2,1.8,13.275,5.4,18.225c3.6,4.95,8.124,9.075,13.575,12.375c5.449,3.3,11.4,5.902,17.85,7.8
		c6.45,1.9,12.525,3.352,18.225,4.35c6,1.102,11.975,1.852,17.925,2.25c5.948,0.401,11.925,0.6,17.925,0.6c7.2,0,14.4-0.3,21.6-0.9
		c2.198-3.199,4.448-6.249,6.75-9.15c2.299-2.899,4.5-5.599,6.6-8.1c5.198-6.199,10.549-12.3,16.05-18.3
		c5.499-6,11.25-11.85,17.25-17.55c2-6.999,3.624-14.124,4.875-21.375c1.25-7.249,1.875-14.573,1.875-21.975
		c0-5.198-0.501-10.425-1.5-15.675c-1-5.25-2.801-9.999-5.4-14.25c-2.602-4.249-6.176-7.699-10.725-10.35
		C165.474,29.842,159.649,28.516,152.55,28.516z M145.5,189.466c2.899-3,5.55-6.274,7.95-9.825c2.4-3.548,4.598-7.223,6.6-11.025
		c-3.4,0.501-6.775,0.975-10.125,1.425c-3.352,0.45-6.727,0.825-10.125,1.125c-2.301,3.4-4.425,6.9-6.375,10.5
		c-1.95,3.6-2.925,6.998-2.925,10.2c0,0.999,0.15,2.048,0.45,3.15c0.3,1.1,1.148,1.65,2.55,1.65c0.999,0,2.048-0.251,3.15-0.75
		c1.099-0.502,2.199-1.125,3.3-1.875c1.099-0.75,2.149-1.526,3.15-2.325C144.099,190.914,144.9,190.164,145.5,189.466z
		 M168.6,150.466c1.8-4.2,3.525-8.4,5.175-12.6c1.65-4.2,3.173-8.499,4.575-12.9c-6.701,6.9-13.076,13.852-19.125,20.85
		c-6.052,7-11.925,14.55-17.625,22.65c3.3-0.398,6.624-0.825,9.975-1.275c3.349-0.45,6.675-0.975,9.975-1.575
		c1.299-2.499,2.524-5.025,3.675-7.575C166.374,155.491,167.499,152.967,168.6,150.466z"/>
	<path fill="#FF3B77" d="M351.45,173.266c-3.9,3.101-8.1,5.827-12.6,8.175c-4.5,2.351-9.25,4.2-14.25,5.55
		c-5.002,1.35-10.199,2.025-15.6,2.025c-4.201,0-7.676-0.4-10.426-1.2c-2.751-0.802-4.95-1.901-6.6-3.3
		c-1.65-1.399-2.827-3.098-3.525-5.1c-0.701-2-1.05-4.2-1.05-6.6c0-2.199,0.248-4.449,0.75-6.75
		c0.499-2.299,1.125-4.575,1.875-6.825s1.549-4.399,2.4-6.45c0.848-2.049,1.673-3.875,2.475-5.475c1.099-0.6,2.775-1.099,5.024-1.5
		c2.25-0.398,4.576-0.6,6.977-0.6c2.1,0,4.049,0.202,5.85,0.6c1.799,0.401,3.049,1,3.75,1.8c-1.402,1.901-2.85,3.952-4.35,6.15
		c-1.5,2.201-2.902,4.451-4.201,6.75c-1.301,2.302-2.35,4.702-3.15,7.2c-0.801,2.501-1.199,5.001-1.199,7.5
		c0,1.001,0.125,2.1,0.375,3.3c0.248,1.2,0.623,2.325,1.125,3.375c0.5,1.05,1.199,1.95,2.1,2.7s2,1.125,3.301,1.125
		c4.598,0,9.074-0.626,13.424-1.875c4.352-1.249,8.525-2.925,12.525-5.025c3.998-2.1,7.85-4.523,11.551-7.275
		c3.697-2.75,7.248-5.625,10.65-8.625c0.199-0.099,0.473-0.199,0.824-0.3c0.35-0.098,0.725-0.15,1.125-0.15c0.998,0,1.5,0.3,1.5,0.9
		C358.899,166.867,355.35,170.167,351.45,173.266z M325.5,111.241c-1.602-1.148-3.951-1.725-7.051-1.725
		c-1.701,0-3.201,0.375-4.5,1.125c-1.301,0.75-2.4,1.676-3.299,2.775c-0.9,1.102-1.602,2.325-2.102,3.675s-0.75,2.677-0.75,3.975
		c0,1.702,0.602,3.075,1.801,4.125c1.199,1.05,2.799,1.575,4.801,1.575c0.697,0,1.822-0.274,3.375-0.825
		c1.549-0.548,3.098-1.324,4.648-2.325c1.551-0.999,2.9-2.149,4.051-3.45c1.148-1.299,1.725-2.7,1.725-4.2
		C327.999,113.967,327.098,112.392,325.5,111.241z"/>
	<path fill="#FF3B77" d="M363.899,183.466c-0.7,0.799-1.927,1.35-3.675,1.65c-1.751,0.3-3.476,0.45-5.175,0.45
		c-0.502,0-1.327,0-2.476,0c-1.15,0-2.324-0.075-3.524-0.225s-2.25-0.401-3.15-0.75c-0.899-0.352-1.35-0.825-1.35-1.425
		c2.2-6,4.474-11.925,6.825-17.775c2.348-5.85,4.823-11.775,7.425-17.775c-1.901-2.198-3.551-4.425-4.95-6.675
		c-1.401-2.25-2.801-4.673-4.2-7.275c0-0.398,0.174-0.649,0.525-0.75c0.349-0.099,0.773-0.15,1.274-0.15c0.5,0,0.999,0.052,1.5,0.15
		c0.5,0.101,0.849,0.201,1.051,0.3c0.998,1.901,2.024,3.727,3.074,5.475c1.051,1.75,2.176,3.426,3.375,5.025
		c5.3-11.899,10.95-23.625,16.951-35.175c6-11.55,12.45-22.924,19.351-34.125c5.1-8.199,10.725-16.35,16.875-24.45
		c6.149-8.1,12.923-15.375,20.324-21.825c7.399-6.45,15.525-11.674,24.375-15.675c8.851-3.999,18.525-6,29.025-6
		c6.398,0,12.9,1.151,19.5,3.45c6.6,2.301,12.6,5.55,18,9.75c5.4,4.2,9.799,9.25,13.2,15.15c3.398,5.901,5.1,12.501,5.1,19.8
		c0,4.8-0.775,9.577-2.325,14.325c-1.551,4.75-3.476,9.126-5.774,13.125c-3.701,6.401-7.976,12.45-12.825,18.15
		c-4.852,5.7-10.076,11.025-15.675,15.975c-5.602,4.95-11.526,9.577-17.775,13.875c-6.251,4.301-12.626,8.301-19.125,12
		c-4.2,2.4-9,4.901-14.399,7.5c-5.4,2.602-11.176,5.001-17.325,7.2c-6.15,2.201-12.601,4.001-19.351,5.4
		c-6.75,1.401-13.626,2.1-20.625,2.1c-0.801,0-1.574,0-2.324,0s-1.526-0.049-2.325-0.15c-4.001,1.2-8.302,1.95-12.9,2.25
		c0.099,3.6,0.45,7.05,1.05,10.35c0.601,3.3,1.599,6.251,3,8.85c1.399,2.599,3.35,4.725,5.851,6.375
		c2.498,1.65,5.749,2.573,9.75,2.775c6,0.3,11.524-0.501,16.575-2.4c5.048-1.901,9.824-4.402,14.324-7.5
		c4.5-3.099,8.851-6.6,13.051-10.5c4.199-3.9,8.399-7.749,12.6-11.55c0.199-0.098,0.474-0.199,0.825-0.3
		c0.349-0.099,0.724-0.15,1.125-0.15c0.998,0,1.5,0.3,1.5,0.9c-4.301,4.702-8.625,9.202-12.976,13.5
		c-4.35,4.301-8.95,8.074-13.8,11.325c-4.852,3.248-10.05,5.824-15.6,7.725c-5.55,1.898-11.625,2.799-18.226,2.7
		c-8.901-0.202-16.075-2.376-21.524-6.525c-5.453-4.151-9.076-10.125-10.875-17.925L363.899,183.466z M370.799,163.216
		c1.298,0,2.399,0.026,3.3,0.075c0.9,0.051,1.749,0.051,2.55,0c0.8-0.049,1.575-0.15,2.325-0.3s1.575-0.424,2.475-0.825
		c-3-0.9-6.051-2.1-9.15-3.6L370.799,163.216z M392.1,151.816c0-1.298-0.502-2.175-1.5-2.625c-1.001-0.45-2.151-0.675-3.45-0.675
		c-2.302,0-4.575,0.776-6.825,2.325c-2.25,1.552-4.226,3.276-5.925,5.175c3.601,2.1,7.25,3.551,10.951,4.35
		c1.898-1.099,3.499-2.374,4.8-3.825C391.448,155.092,392.1,153.518,392.1,151.816z M485.85,9.466c-5.1,0-10.026,0.975-14.775,2.925
		c-4.75,1.95-9.3,4.477-13.649,7.575c-4.351,3.101-8.452,6.6-12.3,10.5c-3.852,3.9-7.477,7.852-10.875,11.85
		c-6.502,7.5-12.551,15.577-18.15,24.225c-5.602,8.65-10.826,17.625-15.675,26.925c-4.852,9.3-9.375,18.802-13.575,28.5
		c-4.2,9.701-8.1,19.401-11.701,29.1c5.5-4.099,11.649-6.15,18.451-6.15c5.4,0,9.45,0.75,12.15,2.25c2.699,1.5,4.05,3.101,4.05,4.8
		c0,1.301-0.701,2.775-2.101,4.425c-1.401,1.65-3.501,3.127-6.3,4.425l-2.85,1.35c6.398,0,12.849-0.773,19.35-2.325
		c6.499-1.549,12.849-3.525,19.05-5.925c6.199-2.4,12.174-5.1,17.926-8.1c5.749-3,11.024-5.949,15.824-8.85
		c3-1.8,6.676-4.2,11.025-7.2s8.925-6.45,13.725-10.35c4.801-3.9,9.574-8.25,14.325-13.05c4.749-4.8,9.023-9.923,12.825-15.375
		c3.799-5.449,6.874-11.224,9.225-17.325c2.349-6.099,3.525-12.398,3.525-18.9c0-6.3-1.477-12.199-4.425-17.7
		c-2.951-5.499-6.802-10.298-11.55-14.4c-4.751-4.1-10.076-7.324-15.976-9.675C497.498,10.643,491.648,9.466,485.85,9.466z"/>
	<path fill="#FF3B77" d="M442.8,173.566c0-3.999,0.874-7.425,2.625-10.275c1.748-2.85,4.05-5.225,6.899-7.125
		c2.851-1.898,6.075-3.3,9.676-4.2c3.6-0.9,7.249-1.35,10.949-1.35c2,0,3.949,0.225,5.851,0.675c1.898,0.45,3.6,1.226,5.1,2.325
		c1.5,1.102,2.7,2.55,3.601,4.35c0.899,1.8,1.35,4.001,1.35,6.6c0,2.201-0.4,4.151-1.2,5.85l-0.45,1.05
		c1.299,0.401,2.6,0.75,3.9,1.05c1.299,0.3,2.6,0.45,3.9,0.45c5.399,0,10.649-0.75,15.75-2.25c5.1-1.5,9.75-4.05,13.949-7.65
		c0.199-0.099,0.474-0.199,0.825-0.3c0.35-0.098,0.725-0.15,1.125-0.15c0.999,0,1.5,0.3,1.5,0.9c-1.8,2.201-3.951,4.125-6.45,5.775
		c-2.5,1.65-5.125,3-7.875,4.05c-2.751,1.05-5.602,1.852-8.55,2.4c-2.95,0.551-5.826,0.825-8.625,0.825c-1.8,0-3.7-0.075-5.7-0.225
		c-2.001-0.15-4-0.424-6-0.825c-2.901,4.402-6.375,7.826-10.425,10.275s-8.726,3.675-14.024,3.675c-2.302,0-4.526-0.375-6.676-1.125
		c-2.151-0.75-4.05-1.826-5.699-3.225c-1.65-1.399-2.951-3.075-3.9-5.025C443.273,178.141,442.8,175.966,442.8,173.566z
		 M458.1,174.766c0,0.701,0.075,1.627,0.225,2.775c0.15,1.15,0.398,2.301,0.75,3.45c0.35,1.151,0.849,2.126,1.5,2.925
		c0.649,0.799,1.523,1.2,2.625,1.2c1.399,0,2.874-0.326,4.426-0.975c1.549-0.649,3.074-1.5,4.574-2.55s2.874-2.224,4.125-3.525
		c1.25-1.298,2.325-2.599,3.226-3.9c-3.3-0.999-6.401-2.524-9.3-4.575c-2.902-2.048-4.751-4.974-5.551-8.775
		c-2.001,1.702-3.6,3.727-4.8,6.075C458.699,169.242,458.1,171.867,458.1,174.766z M481.949,169.066c0.5-1.699,0.75-3.6,0.75-5.7
		c0-0.799-0.074-1.725-0.225-2.775s-0.375-2.025-0.675-2.925c-0.3-0.9-0.675-1.674-1.125-2.325c-0.45-0.649-0.976-0.975-1.575-0.975
		c-0.502,0-0.877,0.3-1.125,0.9c-0.251,0.6-0.427,1.275-0.525,2.025c-0.101,0.75-0.176,1.5-0.225,2.25
		c-0.052,0.75-0.075,1.275-0.075,1.575C477.149,164.517,478.748,167.167,481.949,169.066z"/>
	<path fill="#FF3B77" d="M917.848,30.916c0,1.102-0.551,2.451-1.65,4.05c-1.102,1.601-2.4,3.15-3.9,4.65s-3.074,2.827-4.725,3.975
		c-1.65,1.151-3.025,1.875-4.125,2.175c-20.602-3.098-40.95-5.648-61.05-7.65c-20.101-1.999-40.401-3-60.9-3
		c-10.2,0-20.677,0.251-31.425,0.75c-10.751,0.501-21.525,1.451-32.325,2.85c-10.8,1.401-21.524,3.326-32.175,5.775
		c-10.65,2.452-21.025,5.625-31.125,9.525c-6.3,2.4-12.576,5.25-18.825,8.55c-6.251,3.3-11.826,7.301-16.725,12
		c-4.901,4.702-8.876,10.275-11.925,16.725c-3.052,6.45-4.575,14.076-4.575,22.875c0,3.4,0.323,6.75,0.975,10.05
		c0.649,3.3,1.65,6.427,3,9.375c1.351,2.951,3.099,5.677,5.25,8.175c2.149,2.501,4.726,4.65,7.726,6.45
		c5.1,3.101,10.474,5.077,16.125,5.925c5.648,0.851,11.423,1.327,17.324,1.425c0.301,0,0.45,0.15,0.45,0.45
		c0,0.401-0.276,0.975-0.825,1.725c-0.551,0.75-1.226,1.5-2.024,2.25c-0.802,0.75-1.601,1.425-2.4,2.025
		c-0.802,0.6-1.5,0.952-2.1,1.05h-2.851c-5.602,0-11.076-0.375-16.425-1.125c-5.351-0.75-10.525-2.475-15.524-5.175
		c-3.301-1.8-6.127-3.975-8.476-6.525c-2.351-2.55-4.274-5.348-5.774-8.4c-1.5-3.049-2.602-6.3-3.301-9.75
		c-0.7-3.45-1.05-6.975-1.05-10.575c0-8.599,1.399-16.448,4.2-23.55c2.799-7.099,6.623-13.575,11.475-19.425
		c4.85-5.85,10.575-11.124,17.176-15.825c6.6-4.699,13.673-8.874,21.225-12.525c7.549-3.649,15.424-6.825,23.625-9.525
		c8.198-2.7,16.324-5.025,24.375-6.975c8.049-1.95,15.874-3.574,23.475-4.875c7.599-1.298,14.6-2.349,21-3.15
		c10.599-1.299,21.075-2.225,31.426-2.775c10.35-0.548,20.723-0.825,31.125-0.825c19.5,0,38.85,0.825,58.05,2.475
		C878.848,26.191,898.246,28.316,917.848,30.916z M680.098,133.066c-0.301-0.3-0.45-0.6-0.45-0.9c0-0.799,0.424-1.699,1.274-2.7
		c0.849-0.999,1.475-1.749,1.875-2.25c0.5-0.6,1.2-1.399,2.101-2.4c0.899-0.999,1.875-2,2.925-3c1.05-0.999,2.149-1.849,3.3-2.55
		c1.148-0.698,2.175-1.05,3.075-1.05h0.3c5.7,2.001,11.4,3.651,17.101,4.95c3.3-7.599,7.148-14.899,11.55-21.9
		c4.399-6.998,9.199-13.673,14.399-20.025c5.199-6.349,10.726-12.473,16.575-18.375c5.851-5.899,11.874-11.599,18.075-17.1
		c1.299-0.799,2.724-1.324,4.275-1.575c1.549-0.249,3.173-0.375,4.875-0.375c0.799,0,1.849,0.026,3.149,0.075
		c1.299,0.052,2.55,0.15,3.75,0.3s2.25,0.375,3.15,0.675c0.899,0.3,1.35,0.701,1.35,1.2c0,0.101-0.101,0.352-0.3,0.75
		c-6.6,5.602-13.001,11.4-19.2,17.4c-6.201,6-12.075,12.276-17.625,18.825c-5.55,6.551-10.676,13.451-15.375,20.7
		c-4.701,7.251-8.801,14.876-12.3,22.875c9,1.5,18,2.625,27,3.375s18.099,1.327,27.3,1.725c4.1,0.202,8.175,0.401,12.226,0.6
		c4.05,0.202,8.175,0.3,12.375,0.3c2.1,0,4.223-0.049,6.375-0.15c2.148-0.099,4.274-0.249,6.375-0.45c0.3,0,0.449,0.15,0.449,0.45
		c0,0.401-0.276,0.975-0.824,1.725c-0.551,0.75-1.227,1.5-2.025,2.25c-0.802,0.75-1.601,1.425-2.4,2.025
		c-0.801,0.6-1.5,0.952-2.1,1.05c-6.3,1.301-12.6,2.152-18.9,2.55c-6.3,0.401-12.6,0.6-18.899,0.6c-8.801,0-17.526-0.199-26.175-0.6
		c-8.651-0.398-17.325-0.999-26.025-1.8c-1.5,4.702-2.7,9.45-3.6,14.25c-0.9,4.8-1.351,9.652-1.351,14.55
		c0,9.9,1.925,18.249,5.775,25.05c3.849,6.799,8.899,12.324,15.149,16.575c6.249,4.249,13.351,7.324,21.301,9.225
		c7.949,1.898,15.975,2.85,24.074,2.85c6.099,0,12.249-0.45,18.45-1.35c6.199-0.9,12.274-2.152,18.226-3.75
		c5.948-1.601,11.723-3.551,17.324-5.85c5.6-2.302,10.801-4.901,15.601-7.8c1.599-0.9,2.948-1.725,4.05-2.475
		c1.1-0.75,2.1-1.477,3-2.175c0.9-0.701,1.823-1.451,2.775-2.25c0.949-0.801,2.123-1.75,3.524-2.85
		c0.499-0.3,1.324-0.525,2.476-0.675c1.148-0.15,2.273-0.225,3.375-0.225c1.199,0,2.25,0.075,3.149,0.225
		c0.9,0.15,1.351,0.424,1.351,0.825c0,0.098-0.052,0.199-0.15,0.3c-1.401,1.2-2.55,2.198-3.45,3c-0.899,0.799-1.8,1.549-2.7,2.25
		c-0.899,0.698-1.852,1.425-2.85,2.175c-1.001,0.75-2.25,1.575-3.75,2.475c-5.7,3.6-11.826,6.724-18.375,9.375
		c-6.551,2.648-13.326,4.849-20.325,6.6c-7.001,1.749-14.151,3.075-21.45,3.975c-7.301,0.9-14.55,1.35-21.75,1.35
		c-6.3,0-12.675-0.352-19.125-1.05c-6.449-0.701-12.675-1.926-18.675-3.675c-6-1.751-11.65-4.076-16.95-6.975
		c-5.301-2.901-9.926-6.525-13.875-10.875c-3.951-4.35-7.05-9.501-9.3-15.45c-2.25-5.948-3.375-12.874-3.375-20.775
		c0-4.898,0.45-9.75,1.351-14.55c0.899-4.8,2.048-9.548,3.449-14.25c-4.401-0.699-8.751-1.474-13.05-2.325
		C688.696,135.143,684.396,134.167,680.098,133.066z"/>
	<path fill="#FF3B77" d="M883.494,142.666c1.299,0,2.824,0.126,4.575,0.375c1.749,0.25,3.425,0.75,5.025,1.5
		c1.599,0.75,2.948,1.75,4.05,3c1.1,1.251,1.65,2.826,1.65,4.725c0,2.201-0.802,4.676-2.4,7.425
		c-1.601,2.751-3.851,5.325-6.75,7.725c2.299,2.1,4.875,3.625,7.725,4.575c2.851,0.952,5.926,1.425,9.226,1.425
		c10.898,0,20.648-3.549,29.25-10.65c0.199-0.098,0.474-0.199,0.825-0.3c0.349-0.099,0.724-0.15,1.125-0.15c0.998,0,1.5,0.3,1.5,0.9
		c-4.301,5.001-9.525,8.475-15.676,10.425c-6.149,1.95-12.625,2.925-19.425,2.925c-3.501,0-6.899-0.349-10.2-1.05
		c-3.3-0.698-6.4-1.898-9.3-3.6c-2.1,1.701-4.575,3.326-7.425,4.875c-2.85,1.551-5.85,2.977-9,4.275
		c-3.15,1.301-6.352,2.325-9.6,3.075c-3.251,0.75-6.277,1.125-9.075,1.125c-2.901,0-4.875-0.326-5.925-0.975
		c-1.051-0.649-1.575-1.575-1.575-2.775c0-0.998,0.274-2.25,0.825-3.75c0.548-1.5,1.174-3.098,1.875-4.8
		c0.698-1.699,1.324-3.525,1.875-5.475c0.548-1.95,0.824-3.975,0.824-6.075c0-0.699-0.051-1.599-0.149-2.7
		c-0.101-1.099-0.276-2.149-0.525-3.15c-0.251-0.999-0.576-1.875-0.975-2.625c-0.401-0.75-0.9-1.125-1.5-1.125
		c-0.502,0-1.401,0.026-2.7,0.075c-1.301,0.052-2.625,0-3.975-0.15c-1.351-0.15-2.551-0.398-3.601-0.75
		c-1.05-0.349-1.575-0.923-1.575-1.725c1.702-0.998,3.577-1.673,5.625-2.025c2.049-0.349,4.175-0.525,6.375-0.525
		c1.801,0,3.601,0.075,5.4,0.225s3.45,0.375,4.95,0.675c1.099,0.202,2.198,0.45,3.3,0.75c1.1,0.3,2.1,0.75,3,1.35
		s1.65,1.425,2.25,2.475c0.6,1.05,0.9,2.376,0.9,3.975c0,2.301-0.326,4.725-0.976,7.275c-0.651,2.55-1.226,4.575-1.725,6.075
		c-0.802,2.602-1.901,4.976-3.3,7.125c-1.402,2.152-2.951,4.226-4.65,6.225c4.5-0.9,9.3-2.449,14.4-4.65
		c5.1-2.198,9.648-4.999,13.649-8.4l-2.25-2.1c-2.399-2.299-4.251-4.749-5.55-7.35c-1.301-2.599-1.95-4.999-1.95-7.2
		c0-2.499,0.874-4.875,2.625-7.125C876.318,143.791,879.295,142.666,883.494,142.666z M885.895,162.016
		c0.199,0.401,0.375,0.776,0.525,1.125c0.149,0.352,0.323,0.727,0.524,1.125c1.399-1.699,2.648-3.548,3.75-5.55
		c1.1-1.999,1.65-3.9,1.65-5.7c0-1.2-0.276-2.524-0.825-3.975c-0.551-1.449-1.627-2.273-3.225-2.475
		c-2.002,0.101-3.251,0.9-3.75,2.4c-0.502,1.5-0.75,3.052-0.75,4.65c0,1.402,0.199,2.85,0.6,4.35
		C884.793,159.466,885.295,160.816,885.895,162.016z"/>
	<path fill="#FF3B77" d="M923.394,169.366c3.199-7.2,7.824-12.848,13.875-16.95c6.05-4.1,13.175-6.15,21.375-6.15
		c4.2,0,6.976,0.502,8.325,1.5c1.351,1.001,2.025,2.302,2.025,3.9c0,1.401-0.476,2.977-1.425,4.725
		c-0.952,1.751-2.426,3.476-4.426,5.175c-3.101,2.801-6.7,4.75-10.8,5.85c-4.102,1.102-8.2,1.95-12.3,2.55
		c-1.301,2.602-1.95,4.901-1.95,6.9c0,1.402,0.274,2.576,0.825,3.525c0.549,0.952,1.249,1.676,2.1,2.175
		c0.849,0.501,1.824,0.851,2.926,1.05c1.099,0.202,2.198,0.3,3.3,0.3c9.998,0,19.748-1.699,29.25-5.1
		c9.499-3.398,18.3-8.7,26.399-15.9c0.099-0.099,0.35-0.174,0.75-0.225c0.398-0.049,0.849-0.075,1.351-0.075
		c0.899,0,1.35,0.202,1.35,0.6c-8.399,9-17.901,15.3-28.5,18.9c-10.601,3.6-22.35,5.4-35.25,5.4c-2.602,0-5.151-0.15-7.649-0.45
		c-2.501-0.3-4.726-0.851-6.676-1.65c-1.949-0.802-3.551-1.898-4.8-3.3c-1.249-1.399-1.875-3.15-1.875-5.25
		c0-1.399,0.176-2.723,0.525-3.975C922.471,171.642,922.895,170.467,923.394,169.366z M962.394,151.516c0-0.398-0.201-0.6-0.6-0.6
		c-0.701,0-1.65,0.352-2.85,1.05c-1.2,0.701-2.002,1.151-2.4,1.35c-2.901,1.702-5.7,3.851-8.4,6.45
		c-2.699,2.602-4.949,5.25-6.75,7.95c2.4-0.398,4.85-0.975,7.351-1.725c2.498-0.75,4.748-1.749,6.75-3
		c1.999-1.249,3.649-2.798,4.95-4.65C961.742,156.492,962.394,154.216,962.394,151.516z"/>
	<path fill="#FF3B77" d="M998.093,148.816c-0.9-0.6-1.2-1.074-0.9-1.425c0.3-0.349,0.849-0.623,1.65-0.825
		c0.799-0.199,1.649-0.375,2.55-0.525c0.899-0.15,1.5-0.225,1.8-0.225c1.399-0.099,3.023-0.173,4.875-0.225
		c1.85-0.049,3.574,0,5.175,0.15c1.599,0.15,2.975,0.45,4.125,0.9c1.148,0.45,1.774,1.076,1.875,1.875c-0.3,2.501-1.001,5.1-2.1,7.8
		c3.6-2.499,7.298-4.699,11.1-6.6c3.8-1.898,7.5-3.15,11.101-3.75c3.6-0.6,6.998-0.474,10.199,0.375c3.199,0.851,6,2.775,8.4,5.775
		c0.099,0.202,0.15,0.45,0.15,0.75c0,0.802-0.551,1.327-1.65,1.575c-1.102,0.25-2.351,0.426-3.75,0.525
		c-2.602,0.202-4.477,0.052-5.625-0.45c-1.15-0.499-2.025-1.073-2.625-1.725c-0.6-0.649-1.102-1.275-1.5-1.875
		c-0.4-0.6-1.102-0.9-2.1-0.9c-1.901,0-3.9,0.626-6,1.875c-2.101,1.252-3.852,2.276-5.25,3.075c-4.102,2.4-7.65,4.702-10.65,6.9
		c-3,2.201-5.801,4.901-8.4,8.1c-1.5,3-3.074,5.901-4.725,8.7c-1.65,2.801-3.525,5.5-5.625,8.1c-0.3,0.398-1.026,0.675-2.175,0.825
		c-1.151,0.15-2.325,0.225-3.525,0.225s-2.302-0.101-3.3-0.3c-0.998-0.201-1.5-0.501-1.5-0.9c0.502-1.601,0.9-3.225,1.2-4.875
		s0.7-3.274,1.2-4.875c0.698-1.898,1.474-3.874,2.324-5.925c0.849-2.048,1.625-4.099,2.325-6.15c0.698-2.049,1.299-4.148,1.8-6.3
		c0.5-2.149,0.699-4.275,0.601-6.375c0-0.499-0.026-1.125-0.075-1.875C999.016,149.491,998.692,149.018,998.093,148.816z"/>
	<path fill="#FF3B77" d="M1052.54,169.366c3.199-7.2,7.824-12.848,13.875-16.95c6.05-4.1,13.175-6.15,21.375-6.15
		c4.2,0,6.976,0.502,8.325,1.5c1.351,1.001,2.025,2.302,2.025,3.9c0,1.401-0.476,2.977-1.425,4.725
		c-0.952,1.751-2.426,3.476-4.426,5.175c-3.101,2.801-6.7,4.75-10.8,5.85c-4.102,1.102-8.2,1.95-12.3,2.55
		c-1.301,2.602-1.95,4.901-1.95,6.9c0,1.402,0.274,2.576,0.825,3.525c0.549,0.952,1.249,1.676,2.1,2.175
		c0.849,0.501,1.824,0.851,2.926,1.05c1.099,0.202,2.198,0.3,3.3,0.3c9.998,0,19.748-1.699,29.25-5.1
		c9.499-3.398,18.3-8.7,26.399-15.9c0.099-0.099,0.35-0.174,0.75-0.225c0.398-0.049,0.849-0.075,1.351-0.075
		c0.899,0,1.35,0.202,1.35,0.6c-8.399,9-17.901,15.3-28.5,18.9c-10.601,3.6-22.35,5.4-35.25,5.4c-2.602,0-5.151-0.15-7.649-0.45
		c-2.501-0.3-4.726-0.851-6.676-1.65c-1.949-0.802-3.551-1.898-4.8-3.3c-1.249-1.399-1.875-3.15-1.875-5.25
		c0-1.399,0.176-2.723,0.525-3.975C1051.617,171.642,1052.041,170.467,1052.54,169.366z M1091.54,151.516c0-0.398-0.201-0.6-0.6-0.6
		c-0.701,0-1.65,0.352-2.85,1.05c-1.2,0.701-2.002,1.151-2.4,1.35c-2.901,1.702-5.7,3.851-8.4,6.45
		c-2.699,2.602-4.949,5.25-6.75,7.95c2.4-0.398,4.85-0.975,7.351-1.725c2.498-0.75,4.748-1.749,6.75-3
		c1.999-1.249,3.649-2.798,4.95-4.65C1090.889,156.492,1091.54,154.216,1091.54,151.516z"/>
	<path fill="#FF3B77" d="M1196.089,94.216c3,0,6.174-0.124,9.525-0.375c3.349-0.249,6.6-0.6,9.75-1.05
		c3.149-0.45,6.023-0.949,8.625-1.5c2.599-0.549,4.598-1.125,6-1.725v0.3c0,0.6-0.226,1.425-0.676,2.475
		c-0.449,1.05-0.775,1.826-0.975,2.325c-0.9,2.301-2.175,4.176-3.825,5.625c-1.649,1.451-3.524,2.625-5.625,3.525
		c-2.1,0.9-4.401,1.526-6.899,1.875c-2.501,0.352-5.101,0.525-7.801,0.525c-2.901,0-5.774-0.15-8.625-0.45
		c-2.85-0.3-5.55-0.649-8.1-1.05c-2.55-0.398-4.9-0.825-7.05-1.275c-2.151-0.45-3.976-0.825-5.476-1.125l-13.05-1.95
		c-5.001,8.001-9.325,16.151-12.975,24.45c-3.651,8.301-6.427,16.251-8.325,23.85l-1.35,6.45c0.3,0.101,0.623,0.15,0.975,0.15
		c0.35,0,0.675,0,0.975,0c2.899,0,5.349-0.649,7.351-1.95h0.3c0.499,0,0.75,0.551,0.75,1.65c0,1.001-0.352,1.8-1.05,2.4
		c-0.701,0.6-1.552,1.05-2.55,1.35c-1.001,0.3-2.077,0.501-3.226,0.6c-1.15,0.101-2.175,0.15-3.075,0.15h-1.05
		c-0.201,1.102-0.3,2.175-0.3,3.225c0,1.05,0,2.125,0,3.225c0,2.901,0.248,5.751,0.75,8.55c0.499,2.801,1.373,5.351,2.625,7.65
		c1.249,2.299,2.873,4.148,4.875,5.55c1.999,1.399,4.5,2.1,7.5,2.1c1.599,0,3.174-0.225,4.725-0.675
		c1.55-0.45,3.174-1.026,4.875-1.725c6.199-2.5,11.851-6.023,16.95-10.575c5.101-4.549,9.9-9.225,14.4-14.025
		c0.199-0.098,0.474-0.199,0.825-0.3c0.349-0.099,0.724-0.15,1.125-0.15c0.998,0,1.5,0.3,1.5,0.9v0.3
		c-2.902,3.802-6.15,7.552-9.75,11.25c-3.601,3.701-7.5,7.001-11.7,9.9c-4.2,2.899-8.625,5.25-13.275,7.05
		c-4.649,1.8-9.476,2.7-14.475,2.7c-4.8,0-8.775-0.75-11.925-2.25c-3.15-1.5-5.651-3.525-7.5-6.075
		c-1.852-2.55-3.176-5.499-3.976-8.85c-0.802-3.349-1.2-6.923-1.2-10.725c0-3.698,0.301-7.148,0.9-10.35
		c-3.802-1.599-7.324-3.75-10.575-6.45c-3.248-2.7-6.075-5.775-8.475-9.225c-2.4-3.45-4.275-7.125-5.625-11.025
		c-1.351-3.9-2.025-7.8-2.025-11.7c0-4.598,1.001-8.948,3-13.05c2.002-4.099,5.351-7.699,10.05-10.8
		c3-1.898,6.45-3.125,10.351-3.675c3.899-0.548,7.35-0.825,10.35-0.825c3.199,0,6.525,0.201,9.976,0.6
		c3.449,0.401,7.474,0.952,12.074,1.65c3.099-4.399,6.45-8.75,10.051-13.05c3.6-4.298,7.35-8.149,11.25-11.55
		c3.899-3.398,7.875-6.15,11.925-8.25s8.074-3.15,12.075-3.15c0.799,0,1.199,0.201,1.199,0.6c0,0.401-0.501,1.05-1.5,1.95
		c-5.901,4.102-11.602,9.101-17.1,15c-5.501,5.901-10.65,12.352-15.45,19.35c3.099,0.202,5.874,0.401,8.325,0.6
		c2.449,0.201,4.774,0.375,6.975,0.525c2.199,0.15,4.399,0.276,6.601,0.375C1191.237,94.167,1193.588,94.216,1196.089,94.216z
		 M1126.639,151.666c2.101-8.499,5.175-17.325,9.226-26.475c4.05-9.15,8.774-18.023,14.175-26.625l-0.9-0.15
		c-3.101-0.5-6.225-0.949-9.375-1.35c-3.149-0.398-6.325-0.6-9.524-0.6c-2.7,0-5.625,0.251-8.775,0.75
		c-3.15,0.501-6.124,1.451-8.925,2.85c-3.499,1.702-6.274,4.226-8.325,7.575c-2.049,3.352-3.075,6.926-3.075,10.725
		c0,3.501,0.776,6.952,2.325,10.35c1.552,3.401,3.576,6.577,6.075,9.525c2.501,2.951,5.25,5.602,8.25,7.95
		C1120.789,148.542,1123.737,150.367,1126.639,151.666z"/>
	<path fill="#FF3B77" d="M1258.487,94.216c3,0,6.174-0.124,9.525-0.375c3.349-0.249,6.6-0.6,9.75-1.05
		c3.149-0.45,6.023-0.949,8.625-1.5c2.599-0.549,4.598-1.125,6-1.725v0.3c0,0.6-0.226,1.425-0.676,2.475
		c-0.449,1.05-0.775,1.826-0.975,2.325c-0.9,2.301-2.175,4.176-3.825,5.625c-1.649,1.451-3.524,2.625-5.625,3.525
		c-2.1,0.9-4.401,1.526-6.899,1.875c-2.501,0.352-5.101,0.525-7.801,0.525c-2.901,0-5.774-0.15-8.625-0.45
		c-2.85-0.3-5.55-0.649-8.1-1.05c-2.55-0.398-4.9-0.825-7.05-1.275c-2.151-0.45-3.976-0.825-5.476-1.125l-13.05-1.95
		c-5.001,8.001-9.325,16.151-12.975,24.45c-3.651,8.301-6.427,16.251-8.325,23.85l-1.35,6.45c0.3,0.101,0.623,0.15,0.975,0.15
		c0.35,0,0.675,0,0.975,0c2.899,0,5.349-0.649,7.351-1.95h0.3c0.499,0,0.75,0.551,0.75,1.65c0,1.001-0.352,1.8-1.05,2.4
		c-0.701,0.6-1.552,1.05-2.55,1.35c-1.001,0.3-2.077,0.501-3.226,0.6c-1.15,0.101-2.175,0.15-3.075,0.15h-1.05
		c-0.201,1.102-0.3,2.175-0.3,3.225c0,1.05,0,2.125,0,3.225c0,2.901,0.248,5.751,0.75,8.55c0.499,2.801,1.373,5.351,2.625,7.65
		c1.249,2.299,2.873,4.148,4.875,5.55c1.999,1.399,4.5,2.1,7.5,2.1c1.599,0,3.174-0.225,4.725-0.675
		c1.55-0.45,3.174-1.026,4.875-1.725c6.199-2.5,11.851-6.023,16.95-10.575c5.101-4.549,9.9-9.225,14.4-14.025
		c0.199-0.098,0.474-0.199,0.825-0.3c0.349-0.099,0.724-0.15,1.125-0.15c0.998,0,1.5,0.3,1.5,0.9v0.3
		c-2.902,3.802-6.15,7.552-9.75,11.25c-3.601,3.701-7.5,7.001-11.7,9.9c-4.2,2.899-8.625,5.25-13.275,7.05
		c-4.649,1.8-9.476,2.7-14.475,2.7c-4.8,0-8.775-0.75-11.925-2.25c-3.15-1.5-5.651-3.525-7.5-6.075
		c-1.852-2.55-3.176-5.499-3.976-8.85c-0.802-3.349-1.2-6.923-1.2-10.725c0-3.698,0.301-7.148,0.9-10.35
		c-3.802-1.599-7.324-3.75-10.575-6.45c-3.248-2.7-6.075-5.775-8.475-9.225c-2.4-3.45-4.275-7.125-5.625-11.025
		c-1.351-3.9-2.025-7.8-2.025-11.7c0-4.598,1.001-8.948,3-13.05c2.002-4.099,5.351-7.699,10.05-10.8
		c3-1.898,6.45-3.125,10.351-3.675c3.899-0.548,7.35-0.825,10.35-0.825c3.199,0,6.525,0.201,9.976,0.6
		c3.449,0.401,7.474,0.952,12.074,1.65c3.099-4.399,6.45-8.75,10.051-13.05c3.6-4.298,7.35-8.149,11.25-11.55
		c3.899-3.398,7.875-6.15,11.925-8.25s8.074-3.15,12.075-3.15c0.799,0,1.199,0.201,1.199,0.6c0,0.401-0.501,1.05-1.5,1.95
		c-5.901,4.102-11.602,9.101-17.1,15c-5.501,5.901-10.65,12.352-15.45,19.35c3.099,0.202,5.874,0.401,8.325,0.6
		c2.449,0.201,4.774,0.375,6.975,0.525c2.199,0.15,4.399,0.276,6.601,0.375C1253.636,94.167,1255.986,94.216,1258.487,94.216z
		 M1189.037,151.666c2.101-8.499,5.175-17.325,9.226-26.475c4.05-9.15,8.774-18.023,14.175-26.625l-0.9-0.15
		c-3.101-0.5-6.225-0.949-9.375-1.35c-3.149-0.398-6.325-0.6-9.524-0.6c-2.7,0-5.625,0.251-8.775,0.75
		c-3.15,0.501-6.124,1.451-8.925,2.85c-3.499,1.702-6.274,4.226-8.325,7.575c-2.049,3.352-3.075,6.926-3.075,10.725
		c0,3.501,0.776,6.952,2.325,10.35c1.552,3.401,3.576,6.577,6.075,9.525c2.501,2.951,5.25,5.602,8.25,7.95
		C1183.188,148.542,1186.136,150.367,1189.037,151.666z"/>
</g>
</svg>
