<?xml version="1.0" standalone="no"?>
<!DOCTYPE svg PUBLIC "-//W3C//DTD SVG 20010904//EN"
 "http://www.w3.org/TR/2001/REC-SVG-20010904/DTD/svg10.dtd">
<svg version="1.0" xmlns="http://www.w3.org/2000/svg"
 width="260.000000pt" height="260.000000pt" viewBox="0 0 260.000000 260.000000"
 preserveAspectRatio="xMidYMid meet">
<metadata>
Created by potrace 1.11, written by Peter Selinger 2001-2013
</metadata>
<g transform="translate(0.000000,260.000000) scale(0.100000,-0.100000)"
fill="#000000" stroke="none">
<path d="M590 1341 l0 -851 136 0 135 0 -3 538 -3 537 120 -124 c66 -68 291
-286 500 -485 208 -199 419 -400 467 -447 l88 -85 0 853 0 853 -135 0 -136 0
3 -530 3 -531 -27 33 c-15 18 -28 36 -28 39 0 6 -447 425 -705 659 -93 85
-224 208 -292 274 l-123 118 0 -851z"/>
</g>
</svg>
